<?xml version="1.0" encoding="UTF-8" standalone="no"?>
<svg
   height="64"
   viewBox="0 0 64 64"
   width="64"
   version="1.1"
   id="svg28"
   sodipodi:docname="DefaultProjectIcon.svg"
   inkscape:version="1.2.1 (9c6d41e410, 2022-07-14, custom)"
   inkscape:export-filename="DefaultProjectIcon.png"
   inkscape:export-xdpi="96"
   inkscape:export-ydpi="96"
   xmlns:inkscape="http://www.inkscape.org/namespaces/inkscape"
   xmlns:sodipodi="http://sodipodi.sourceforge.net/DTD/sodipodi-0.dtd"
   xmlns="http://www.w3.org/2000/svg"
   xmlns:svg="http://www.w3.org/2000/svg">
  <defs
     id="defs32" />
  <sodipodi:namedview
     id="namedview30"
     pagecolor="#ffffff"
     bordercolor="#666666"
     borderopacity="1.0"
     inkscape:showpageshadow="2"
     inkscape:pageopacity="0.0"
     inkscape:pagecheckerboard="0"
     inkscape:deskcolor="#d1d1d1"
     showgrid="false"
     inkscape:zoom="2"
     inkscape:cx="14.25"
     inkscape:cy="73.5"
     inkscape:window-width="1920"
     inkscape:window-height="1007"
     inkscape:window-x="0"
     inkscape:window-y="235"
     inkscape:window-maximized="1"
     inkscape:current-layer="svg28" />
  <path
     d="M 8,0 C 3.568,0 0,3.568 0,8 v 48 c 0,4.432 3.568,8 8,8 h 48 c 4.432,0 8,-3.568 8,-8 V 8 C 64,3.568 60.432,0 56,0 Z"
     fill="#355570"
     stroke-linecap="round"
     stroke-width="2"
     id="path2"
     style="stroke-linejoin:round" />
  <path
     d="M 8,0 C 3.568,0 0,3.568 0,8 v 48 c 0,4.432 3.568,8 8,8 h 48 c 4.432,0 8,-3.568 8,-8 V 8 C 64,3.568 60.432,0 56,0 Z m 0,2 h 48 c 3.324,0 6,2.676 6,6 v 48 c 0,3.324 -2.676,6 -6,6 H 8 C 4.676,62 2,59.324 2,56 V 8 C 2,4.676 4.676,2 8,2 Z"
     fill-opacity="0.19608"
     stroke-linecap="round"
     stroke-width="2"
     id="path4"
     style="stroke-linejoin:round" />
  <path
     id="path7883"
     style="mix-blend-mode:normal;fill:#478cbf;fill-opacity:1;fill-rule:nonzero;stroke:#ffffff;stroke-width:3;stroke-opacity:1;stroke-dasharray:none;paint-order:stroke fill markers;stroke-linejoin:round;stroke-linecap:round"
     d="m 35.545371,7.957087 c -1.605018,0.3566563 -3.191706,0.8531991 -4.679681,1.6020516 0.03421,1.3137484 0.119326,2.5724734 0.291016,3.8510694 -0.576669,0.370166 -1.185135,0.687769 -1.724608,1.121092 -0.549123,0.421859 -1.108161,0.825502 -1.60449,1.318845 -0.991907,-0.656059 -2.041833,-1.272652 -3.123045,-1.816891 -1.165825,1.254642 -2.256331,2.60914 -3.14648,4.124509 0.571052,0.921319 1.330559,2.145611 2.145505,3.063473 v 8.557117 l 0.0024,0.001 v 0.741696 3.33e-4 l -0.0083,1.229982 h -0.002 c 0.0025,0.55135 0.01026,1.152519 0.01026,1.274899 0,5.414574 6.866102,8.016935 15.39989,8.046868 h 0.01077 0.01073 c 8.533784,-0.02993 15.399883,-2.632294 15.399883,-8.046868 0,-0.12238 0.0077,-0.723549 0.01023,-1.274899 h -0.002 l -0.0083,-1.229982 v -3.33e-4 -0.741696 l 0.0023,-0.001 v -8.557117 c 0.814945,-0.917862 1.574451,-2.142154 2.145507,-3.063473 -0.890149,-1.515369 -1.980658,-2.869867 -3.146483,-4.124509 -1.081212,0.544239 -2.131138,1.160832 -3.123043,1.816891 -0.49633,-0.493343 -1.055369,-0.896986 -1.604492,-1.318845 -0.539473,-0.433323 -1.147935,-0.750926 -1.724608,-1.121092 0.171686,-1.278596 0.256803,-2.537321 0.291013,-3.8510694 -1.487972,-0.7488525 -3.07466,-1.2453953 -4.679682,-1.6020516 -0.640765,1.0769755 -1.226928,2.243651 -1.737301,3.383786 -0.605163,-0.101116 -1.212935,-0.13877 -1.821778,-0.145996 h -0.01173 c 0,0 -3.34e-4,0 -3.34e-4,0 h -6.66e-4 -0.01173 c -0.608829,0.0072 -1.216612,0.04488 -1.821774,0.145996 -0.51028,-1.140135 -1.096439,-2.3068105 -1.737209,-3.383786 z" />
  <path
     id="path2504"
     style="color:#000000;fill:#ffffff;fill-rule:evenodd;stroke-linecap:round;stroke-linejoin:round;paint-order:stroke fill markers"
     d="M 31.361328 22.931641 C 28.800962 22.899631 26.254082 23.350477 23.53125 24.216797 A 1.50015 1.50015 0 0 0 23.511719 24.224609 C 18.074059 26.037241 14.673357 29.520581 13.822266 30.425781 C 13.303284 30.285641 12.733821 30.104851 11.519531 29.917969 C 10.686896 29.789824 9.8103901 29.698758 8.953125 29.755859 C 8.1169758 29.811559 7.1206726 29.960992 6.4257812 30.935547 C 5.707339 31.857555 5.7650889 32.836634 5.8867188 33.701172 C 6.0118226 34.590407 6.2870761 35.478125 6.5898438 36.306641 C 7.0861773 37.664843 7.5035141 38.445533 7.7011719 38.835938 C 7.4750851 39.578971 7.1130497 41.03512 7.3046875 43.550781 L 7.3046875 43.552734 C 7.4579613 45.686918 8.1335455 47.299064 8.7636719 48.457031 C 8.1916214 48.849381 7.5390635 49.561026 7.5390625 50.5625 C 7.5390625 51.240112 7.8663452 51.77046 8.2011719 52.121094 C 8.5359985 52.471726 8.9100025 52.704812 9.3144531 52.896484 C 10.123355 53.279833 11.07824 53.486328 12.123047 53.486328 L 12.308594 53.486328 C 14.035286 55.157567 16.542889 57.263045 20.328125 57.515625 A 1.50015 1.50015 0 0 0 20.349609 57.517578 C 25.258006 57.775872 28.604374 55.937082 30.046875 55.576172 A 1.50015 1.50015 0 0 0 30.15625 55.544922 C 31.851219 54.979996 34.782848 54.916195 36.685547 54.914062 C 39.383519 55.257658 41.295785 55.758021 42.486328 56.164062 C 43.691322 56.575034 44.095703 56.832031 44.095703 56.832031 A 1.50015 1.50015 0 0 0 46.361328 55.681641 C 46.361328 55.681641 46.430288 54.746686 46.15625 53.478516 C 45.882219 52.210261 45.273415 50.482663 43.980469 48.542969 A 1.50015 1.50015 0 0 0 43.945312 48.494141 C 42.95675 47.135275 41.667294 46.261251 40.478516 45.621094 C 40.86654 45.458123 41.182057 45.236653 41.603516 45.152344 A 1.50015 1.50015 0 0 0 41.646484 45.142578 C 44.479704 44.489324 46.869141 44.699219 46.869141 44.699219 A 1.50015 1.50015 0 0 0 48.470703 42.890625 C 48.470703 42.890625 47.596988 39.007219 43.669922 35.865234 A 1.50015 1.50015 0 0 0 43.605469 35.816406 C 41.983516 34.657678 40.357695 34.113744 38.970703 33.796875 C 39.345318 33.493259 39.558385 33.214894 40.109375 32.912109 C 42.054998 31.949928 45.212891 31.652344 45.212891 31.652344 A 1.50015 1.50015 0 0 0 46.265625 29.207031 C 46.265625 29.207031 43.850849 26.278267 39.242188 24.486328 A 1.50015 1.50015 0 0 0 39.210938 24.474609 C 36.477311 23.480449 33.921782 22.963677 31.361328 22.931641 z M 31.324219 25.931641 C 33.504005 25.958911 35.688849 26.389327 38.167969 27.289062 C 39.760284 27.909844 40.78471 28.637846 41.708984 29.304688 C 40.732867 29.540322 39.735452 29.738721 38.740234 30.236328 A 1.50015 1.50015 0 0 0 38.691406 30.261719 C 35.723222 31.880701 34.509766 34.230469 34.509766 34.230469 A 1.50015 1.50015 0 0 0 35.951172 36.398438 C 35.951172 36.398438 38.96415 36.215262 41.824219 38.238281 C 43.359402 39.475095 44.270255 40.74854 44.808594 41.740234 C 43.739232 41.788384 42.464457 41.879719 41 42.214844 C 38.127156 42.795939 36.048828 44.689453 36.048828 44.689453 A 1.50015 1.50015 0 0 0 36.673828 47.271484 C 36.673828 47.271484 40.047323 48.271527 41.498047 50.236328 C 42.306429 51.456686 42.553093 52.338085 42.8125 53.185547 C 41.418454 52.742398 39.63892 52.253391 36.986328 51.921875 A 1.50015 1.50015 0 0 0 36.800781 51.910156 C 34.907946 51.910156 31.77159 51.853597 29.228516 52.695312 C 26.904189 53.297591 24.568326 54.73197 20.515625 54.521484 C 17.515098 54.316651 15.502391 52.533643 13.894531 50.925781 A 1.50015 1.50015 0 0 0 13.072266 50.585938 C 13.271101 50.612797 13.433994 50.638672 13.783203 50.638672 A 1.50015 1.50015 0 0 0 14.160156 50.458984 A 1.50015 1.50015 0 0 0 14.898438 50.867188 C 15.657529 50.783128 16.287884 50.941108 17.148438 51.199219 C 18.008991 51.457331 19.082093 51.824219 20.427734 51.824219 C 22.896562 51.824219 25.571388 50.748151 26.990234 47.910156 A 1.50015 1.50015 0 0 0 27.041016 47.796875 C 28.240496 44.800121 27.929549 40.802685 27.070312 38.224609 L 27.070312 38.222656 C 26.703631 37.12295 26.169788 36.12465 25.384766 35.341797 C 24.599345 34.558548 23.493873 34.008883 22.287109 34.021484 C 21.986028 34.024584 21.684345 34.074864 21.384766 34.140625 C 18.70459 34.466891 16.837566 36.354165 15.763672 38.501953 C 15.059997 39.909452 14.671483 41.516848 14.453125 42.783203 C 14.375975 42.613582 14.288526 42.387567 14.230469 42.259766 C 14.099251 41.970911 14.097656 41.756482 14.097656 42.019531 A 1.50015 1.50015 0 0 0 14.019531 41.544922 C 13.848853 41.033338 13.738284 40.36013 13.535156 39.662109 C 13.433593 39.313101 13.323271 38.943236 13.017578 38.523438 C 12.711885 38.103639 12.014604 37.643451 11.326172 37.650391 A 1.50015 1.50015 0 0 0 11.324219 37.650391 C 11.135582 37.652291 10.964707 37.678247 10.810547 37.716797 A 1.50015 1.50015 0 0 0 10.699219 37.75 C 10.623139 37.77541 10.614059 37.83425 10.544922 37.863281 C 10.481212 37.739492 9.9031656 36.629839 9.4082031 35.275391 C 9.1473174 34.561482 8.9326368 33.81783 8.8574219 33.283203 C 8.8178619 33.002057 8.8322881 32.863131 8.8300781 32.8125 C 8.8905381 32.79087 8.9799039 32.76149 9.1523438 32.75 C 9.6299373 32.71819 10.354651 32.773571 11.064453 32.882812 C 12.484059 33.101294 13.837891 33.494141 13.837891 33.494141 A 1.50015 1.50015 0 0 0 15.376953 33.054688 C 15.376953 33.054688 19.238277 28.813541 24.457031 27.072266 C 24.458431 27.071789 24.459538 27.070812 24.460938 27.070312 C 26.949993 26.280154 29.144932 25.904391 31.324219 25.931641 z M 8.8613281 32.648438 C 8.7747882 32.778201 8.7667213 32.785767 8.7695312 32.794922 C 8.7631313 32.802622 8.773125 32.766411 8.765625 32.775391 A 1.50015 1.50015 0 0 0 8.8613281 32.648438 z M 9.5136719 47.714844 C 9.5281219 47.758214 9.5415106 47.760394 9.5566406 47.802734 C 9.5715706 47.833614 9.57843 47.879504 9.59375 47.910156 L 9.5136719 47.714844 z M 24.035156 49.183594 C 24.038457 49.183291 24.041619 49.186208 24.044922 49.185547 L 24.035156 49.185547 L 24.035156 49.183594 z M 11.646484 50.367188 A 1.50015 1.50015 0 0 0 11.710938 50.404297 C 11.675818 50.400097 11.653531 50.391709 11.619141 50.386719 A 1.50015 1.50015 0 0 0 11.646484 50.367188 z " />
  <path
     style="color:#000000;fill:#478cbf;fill-rule:evenodd;stroke-width:3;stroke-linecap:round;stroke-linejoin:round;-inkscape-stroke:none;paint-order:stroke fill markers"
     d="m 31.342969,24.430812 c -2.372869,-0.02967 -4.745821,0.38569 -7.356067,1.216189 -5.695243,1.898495 -9.728747,6.40685 -9.728747,6.40685 0,0 -5.6950227,-1.661418 -6.6445213,-0.23767 -1.1862484,1.424248 1.6614965,6.881826 1.6614965,6.881826 0,0 -0.7117245,1.661358 -0.4749751,4.745355 0.238,3.322493 2.1361059,5.696037 2.1361059,5.696037 -0.9492489,0.2365 -1.8980689,0.710729 -1.8980689,1.422725 0,0.712252 1.4232269,1.424192 3.0842239,1.424192 h 0.712279 c 1.660748,1.66075 4.033763,3.795942 7.593008,4.033442 4.508492,0.237249 7.356006,-1.423436 9.254503,-1.898434 2.135497,-0.71175 5.220399,-0.711547 7.118397,-0.711547 5.694994,0.711749 8.067248,2.136106 8.067248,2.136106 0,0 0.237493,-2.611035 -2.135004,-6.170281 -1.898748,-2.609994 -5.695304,-3.558466 -5.695304,-3.558466 0,0 1.898231,-1.661722 4.271479,-2.136471 3.084746,-0.711249 5.695303,-0.474606 5.695303,-0.474606 0,0 -0.712482,-3.321687 -4.271478,-6.169184 -3.321997,-2.373247 -6.881463,-2.135737 -6.881463,-2.135737 0,0 0.948956,-1.898515 3.559203,-3.322263 2.372997,-1.186496 5.694937,-1.423096 5.694937,-1.423096 0,0 -2.135241,-2.610363 -6.406486,-4.271108 -2.610247,-0.949249 -4.983198,-1.424169 -7.356069,-1.453859 z m -9.039903,11.091052 c 1.554209,-0.01623 2.721819,1.307365 3.344598,3.176143 0.712002,2.135248 0.949867,6.169726 2.5e-4,8.542224 -1.186248,2.372747 -3.084833,3.08459 -5.220329,3.08459 -2.136247,0 -3.559191,-1.185716 -5.694938,-0.949219 0.474749,-0.474 0.474804,-1.660838 0.237304,-3.08459 -0.111125,-0.43214 -0.183804,-0.503566 -0.365844,-0.914792 0.712249,0.474749 1.077757,-0.271363 1.077757,-0.271363 0,0 0.236962,-3.558997 1.42346,-5.932241 0.948999,-1.897998 2.37292,-3.322199 4.508416,-3.559199 0.237343,-0.05931 0.467178,-0.08924 0.689208,-0.09155 z m -10.962509,3.627679 c 0.78369,-0.0079 0.811522,1.535962 1.256834,2.870724 0,0.473999 0.474047,1.185822 0.711547,1.898071 h -0.237305 c -0.711498,0 -0.949241,1.423955 -0.474242,3.084953 0.23725,0.949252 0.711772,1.898608 1.186522,2.136108 -0.47475,0 -0.718169,-0.108033 -1.430418,-0.108033 -0.257453,-0.01027 -0.175251,-0.0147 -0.511596,0.007 -0.23725,-0.475753 -0.668389,-1.085845 -0.905638,-1.798094 -0.474499,-0.949249 -0.711718,-1.898342 -0.9492179,-4.746089 0,-1.423498 0.4747729,-3.083776 1.1865219,-3.321526 0.05931,-0.01483 0.114746,-0.02253 0.166992,-0.02307 z m 11.222884,1.683835 c -1.186247,0.237503 -1.186467,1.660705 -0.949218,3.559199 0.237251,2.135498 0.949242,3.559763 2.13574,3.322263 1.186499,0 1.186467,-1.661201 0.949218,-3.559199 -0.237251,-1.898248 -0.711991,-3.322263 -2.13574,-3.322263 z"
     id="path2506" />
  <path
     id="path1318"
     style="mix-blend-mode:normal;fill:#414042;fill-opacity:1;fill-rule:evenodd;stroke:none;stroke-width:0.333332"
     d="m 22.5625,40.833984 c -1.186246,0.237503 -1.186468,1.660102 -0.949219,3.558594 0.237251,2.135496 0.950222,3.559766 2.136719,3.322266 1.186498,0 1.186468,-1.660598 0.949219,-3.558594 -0.237251,-1.898246 -0.712971,-3.322266 -2.136719,-3.322266 z m -9.490234,3.083985 c -0.711498,0 -0.949606,1.424945 -0.47461,3.085937 0.23725,0.949249 0.7108,1.897266 1.185547,2.134766 0,0 0.37515,0.267516 0.949219,0.236328 0.474746,-0.474 0.475781,-1.660238 0.238281,-3.083984 -0.111125,-0.43214 -0.18515,-0.502837 -0.367187,-0.914063 -0.751246,-0.534478 -1.294922,-1.458984 -1.294922,-1.458984 z" />
</svg>
