<?xml version="1.0" encoding="UTF-8" standalone="no"?>
<!-- Created with Inkscape (http://www.inkscape.org/) -->

<svg
   version="1.1"
   id="svg2"
   xml:space="preserve"
   width="16"
   height="16"
   viewBox="0 0 16 16"
   sodipodi:docname="icon_Resource.svg"
   inkscape:export-filename="H:\Dev Files\Godot\Projects\Node-16 Framework\addons\N16_Custom_Types\icon.png"
   inkscape:export-xdpi="96"
   inkscape:export-ydpi="96"
   inkscape:version="1.1 (c68e22c387, 2021-05-23)"
   xmlns:inkscape="http://www.inkscape.org/namespaces/inkscape"
   xmlns:sodipodi="http://sodipodi.sourceforge.net/DTD/sodipodi-0.dtd"
   xmlns="http://www.w3.org/2000/svg"
   xmlns:svg="http://www.w3.org/2000/svg"><defs
     id="defs6"><filter
       id="selectable_hidder_filter"
       width="1"
       height="1"
       x="0"
       y="0"
       style="color-interpolation-filters:sRGB"
       inkscape:label="LPE boolean visibility"><feComposite
         id="boolops_hidder_primitive"
         result="composite1"
         operator="arithmetic"
         in2="SourceGraphic"
         in="BackgroundImage"
         k1="0"
         k2="0"
         k3="0"
         k4="0" /></filter><inkscape:path-effect
       effect="bool_op"
       id="path-effect1743"
       is_visible="true"
       lpeversion="1"
       operand-path=""
       operation="diff"
       swap-operands="false"
       rmv-inner="false"
       filltype-this="from-curve"
       filter=""
       filltype-operand="from-curve" /><inkscape:path-effect
       effect="fillet_chamfer"
       id="path-effect1741"
       is_visible="true"
       lpeversion="1"
       satellites_param="F,0,0,1,0,0,0,1 @ F,0,0,1,0,0,0,1 @ F,0,0,1,0,0,0,1 @ F,0,0,1,0,0,0,1 @ F,0,0,1,0,0,0,1 @ F,0,0,1,0,0,0,1 | F,0,0,1,0,0,0,1 @ F,0,0,1,0,0,0,1 @ F,0,0,1,0,0,0,1 @ F,0,0,1,0,0,0,1 @ F,0,0,1,0,0,0,1 @ F,0,0,1,0,0,0,1 @ F,0,0,1,0,0,0,1 @ F,0,0,1,0,0,0,1 @ F,0,0,1,0,0,0,1 @ F,0,0,1,0,0,0,1 @ F,0,0,1,0,0,0,1 | F,0,0,1,0,0,0,1 @ F,0,0,1,0,0,0,1 @ F,0,0,1,0,0,0,1"
       unit="px"
       method="auto"
       mode="F"
       radius="0"
       chamfer_steps="1"
       flexible="false"
       use_knot_distance="true"
       apply_no_radius="true"
       apply_with_radius="true"
       only_selected="false"
       hide_knots="false" /><clipPath
       clipPathUnits="userSpaceOnUse"
       id="clipPath16"><path
         d="M 0,256 H 256 V 0 H 0 Z"
         id="path14" /></clipPath></defs><sodipodi:namedview
     id="namedview4"
     pagecolor="#ffffff"
     bordercolor="#999999"
     borderopacity="1"
     inkscape:pageshadow="0"
     inkscape:pageopacity="0"
     inkscape:pagecheckerboard="0"
     showgrid="false"
     inkscape:snap-others="true"
     inkscape:snap-bbox="true"
     inkscape:bbox-nodes="true"
     inkscape:snap-bbox-edge-midpoints="true"
     inkscape:bbox-paths="true"
     inkscape:snap-bbox-midpoints="true"
     inkscape:object-paths="true"
     inkscape:snap-intersection-paths="true"
     inkscape:snap-smooth-nodes="true"
     inkscape:snap-midpoints="true"
     inkscape:snap-object-midpoints="true"
     inkscape:snap-center="true"
     inkscape:snap-text-baseline="true"
     width="256px"
     inkscape:snap-page="true"
     inkscape:zoom="32"
     inkscape:cx="11.578125"
     inkscape:cy="8.484375"
     inkscape:window-width="1920"
     inkscape:window-height="1009"
     inkscape:window-x="-8"
     inkscape:window-y="227"
     inkscape:window-maximized="1"
     inkscape:current-layer="g8"
     showguides="false" /><g
     id="g8"
     inkscape:groupmode="layer"
     inkscape:label="Main"
     transform="matrix(1.3333333,0,0,-1.3333333,0,341.33333)"
     style="display:inline;opacity:1;mix-blend-mode:normal"><path
       id="path7883"
       style="mix-blend-mode:normal;fill:#e0e0e0;fill-opacity:1;fill-rule:nonzero;stroke:none;stroke-width:0.999999"
       d="m 6.7914099,255.36669 c -0.3582604,-0.0796 -0.7124287,-0.19044 -1.0445638,-0.3576 0.00764,-0.29324 0.026635,-0.5742 0.064958,-0.8596 -0.1287199,-0.0826 -0.2645368,-0.15352 -0.3849538,-0.25025 -0.1225714,-0.0942 -0.2473554,-0.18425 -0.3581424,-0.29438 -0.221406,0.14644 -0.4557628,0.28407 -0.6971028,0.40556 -0.2602269,-0.28006 -0.5036418,-0.5824 -0.7023342,-0.92064 0.1274661,-0.20566 0.2969977,-0.47893 0.4789038,-0.68382 v -0.69601 c 0.594694,0.18686 1.1505173,0.28415 1.7088606,0.27717 0.566874,-0.007 1.1329121,-0.12156 1.740032,-0.34234 l 0.00305,-9.2e-4 0.00305,-9.2e-4 c 1.0203446,-0.39673 1.5524587,-1.04238 1.5524587,-1.04238 l 0.3635923,-0.44446 -0.5726364,-0.0408 c 0,0 -0.7101262,-0.0648 -1.1548616,-0.28545 -0.1432196,-0.0787 -0.2530342,-0.15967 -0.3448457,-0.23814 0.3216882,-0.0629 0.7266246,-0.19101 1.1218383,-0.47335 l 0.00665,-0.005 0.00632,-0.005 c 0.3812793,-0.30506 0.6316544,-0.64074 0.7927965,-0.9213 0.9930846,0.26745 1.6539296,0.79036 1.6539296,1.58396 0,0.0273 0.0017,0.1615 0.0023,0.28457 h -4.55e-4 l -0.0018,0.27455 v 6e-5 0.16556 l 5.2e-4,2e-4 v 1.91005 c 0.181907,0.20488 0.351438,0.47815 0.478905,0.68381 -0.198694,0.33824 -0.442108,0.64058 -0.702337,0.92064 -0.241338,-0.12149 -0.475695,-0.25912 -0.697101,-0.40555 -0.110787,0.11012 -0.2355721,0.20022 -0.358142,0.29438 -0.1204175,0.0967 -0.2562342,0.16761 -0.3849547,0.25024 0.038323,0.2854 0.057323,0.56636 0.064958,0.8596 -0.3321341,0.16716 -0.6863032,0.27799 -1.0445649,0.35761 -0.1430257,-0.2404 -0.273865,-0.50082 -0.3877873,-0.75531 -0.1350802,0.0226 -0.270742,0.0309 -0.4066431,0.0326 h -0.00263 -6.5e-5 -6.51e-5 -0.00263 c -0.1358985,-0.002 -0.2715642,-0.01 -0.4066438,-0.0326 -0.113921,0.25449 -0.2447602,0.51491 -0.387788,0.75531 z m -0.9380802,-3.67712 c -0.5296539,0.006 -1.0593005,-0.0861 -1.6419402,-0.27149 -1.2712497,-0.42377 -2.1715248,-1.43006 -2.1715248,-1.43006 0,0 -1.27120127,0.37087 -1.48314141,0.053 -0.26478547,-0.31791 0.37078539,-1.53611 0.37078539,-1.53611 0,0 -0.1587841,-0.37088 -0.10593866,-1.05927 0.0531246,-0.74163 0.47672408,-1.27138 0.47672408,-1.27138 -0.2118844,-0.0528 -0.42364576,-0.15867 -0.42364576,-0.3176 0,-0.15898 0.31773686,-0.31792 0.68849226,-0.31792 h 0.1589081 c 0.3706997,-0.3707 0.9004415,-0.84724 1.6949098,-0.90026 1.0063523,-0.053 1.6419267,0.31773 2.0656953,0.42376 0.4766694,0.15887 1.1653141,0.1588 1.588971,0.1588 1.2711932,-0.15888 1.8006306,-0.47683 1.8006306,-0.47683 0,0 0.053065,0.58283 -0.4765072,1.37731 -0.4238234,0.58258 -1.2712634,0.79432 -1.2712634,0.79432 0,0 0.4237096,0.37086 0.9534481,0.47683 0.6885544,0.15876 1.2712641,0.10594 1.2712641,0.10594 0,0 -0.1590352,0.7415 -0.9534488,1.37709 -0.7415107,0.52974 -1.536001,0.47673 -1.536001,0.47673 0,0 0.2117918,0.42377 0.7944319,0.74157 0.5296824,0.26483 1.2711535,0.31759 1.2711541,0.31759 0,0 -0.4765592,0.58264 -1.4299539,0.95335 -0.58264,0.21187 -1.1123948,0.31794 -1.6420496,0.32456 z m -2.0178482,-2.47571 h 1.106e-4 c 0.3469192,0.004 0.6074629,-0.29174 0.7464751,-0.70888 0.1589277,-0.47661 0.2120757,-1.37721 1.106e-4,-1.90678 -0.2647884,-0.52963 -0.6885497,-0.6885 -1.1652193,-0.6885 -0.4768372,0 -0.7945385,0.26467 -1.2712641,0.21189 0.10597,0.10579 0.1059823,0.37068 0.05297,0.68848 -0.024804,0.0965 -0.041,0.11246 -0.081634,0.20425 0.158983,-0.10597 0.2405418,0.0605 0.2405418,0.0605 0,0 0.052974,0.7945 0.317816,1.32424 0.2118285,0.42365 0.5296388,0.74152 1.0063084,0.79443 0.052978,0.0132 0.1042256,0.0198 0.1537854,0.0204 z m -2.4469434,-0.80969 c 0.1749295,0.002 0.1811421,-0.34282 0.2805412,-0.64076 0,-0.1058 0.1058951,-0.26477 0.158908,-0.42375 h -0.052969 c -0.1588153,0 -0.2119646,-0.31785 -0.1059387,-0.6886 0.052957,-0.21188 0.1588767,-0.42372 0.2648468,-0.47673 -0.1059701,0 -0.16025,0.024 -0.319233,0.024 -0.057467,0.003 -0.039146,0.004 -0.1142218,-0.002 -0.052958,0.10619 -0.1492201,0.24231 -0.2021772,0.4013 -0.1059143,0.21188 -0.1588645,0.42373 -0.2118774,1.05939 0,0.31773 0.1059752,0.68838 0.2648466,0.74145 0.013239,0.004 0.025613,0.005 0.037275,0.006 z m 2.5051443,-0.37591 c -0.2647852,-0.053 -0.2648343,-0.37066 -0.2118773,-0.79444 0.052958,-0.47666 0.2118827,-0.79457 0.476724,-0.74156 0.2648413,0 0.2648345,0.37077 0.2118773,0.79443 -0.052958,0.42372 -0.1589251,0.74157 -0.476724,0.74157 z" /></g></svg>
