<?xml version="1.0" encoding="UTF-8" standalone="no"?>
<svg
   height="16"
   viewBox="0 0 16 16"
   width="16"
   version="1.1"
   id="svg4"
   sodipodi:docname="icon_sonic.svg"
   inkscape:version="1.2.2 (b0a8486541, 2022-12-01)"
   inkscape:export-filename="H:\Dev Files\Godot\Assets\Node-16 Framework\Tile Editor\Icons\Import_SonED2.png"
   inkscape:export-xdpi="96"
   inkscape:export-ydpi="96"
   xmlns:inkscape="http://www.inkscape.org/namespaces/inkscape"
   xmlns:sodipodi="http://sodipodi.sourceforge.net/DTD/sodipodi-0.dtd"
   xmlns="http://www.w3.org/2000/svg"
   xmlns:svg="http://www.w3.org/2000/svg">
  <defs
     id="defs8" />
  <sodipodi:namedview
     id="namedview6"
     pagecolor="#ffffff"
     bordercolor="#999999"
     borderopacity="1"
     inkscape:pageshadow="0"
     inkscape:pageopacity="0"
     inkscape:pagecheckerboard="0"
     showgrid="false"
     inkscape:zoom="8.1158278"
     inkscape:cx="-7.8242173"
     inkscape:cy="0.36964806"
     inkscape:window-width="1920"
     inkscape:window-height="980"
     inkscape:window-x="0"
     inkscape:window-y="0"
     inkscape:window-maximized="1"
     inkscape:current-layer="svg4"
     inkscape:object-nodes="false"
     inkscape:snap-page="true"
     inkscape:snap-bbox="false"
     inkscape:bbox-paths="true"
     inkscape:bbox-nodes="true"
     inkscape:snap-bbox-edge-midpoints="true"
     inkscape:snap-bbox-midpoints="true"
     inkscape:showpageshadow="2"
     inkscape:deskcolor="#d1d1d1" />
  <path
     d="m 13,33 h 2 v -2 h -2 v -2 h -2 v 2 H 9 v 2 h 2 v 2 h 2 z"
     fill="#84ffb1"
     fill-rule="evenodd"
     id="path8" />
  <path
     id="path7883"
     style="display:inline;mix-blend-mode:normal;fill:#e0e0e0;fill-opacity:1;fill-rule:nonzero;stroke:none;stroke-width:1.33333"
     d="M 9.511053,2.148326 C 8.63609,2.138326 7.761138,2.291137 6.798645,2.598637 4.6986,3.301529 3.211387,4.970625 3.211387,4.970625 c 0,0 -2.099964,-0.615148 -2.45008,-0.08791 -0.437413,0.527306 0.612521,2.547889 0.612521,2.547889 0,0 -0.262303,0.615165 -0.175006,1.756973 0.08775,1.230115 0.787525,2.108792 0.787525,2.108792 -0.350022,0.08758 -0.699843,0.26318 -0.699843,0.52679 0,0.263696 0.524888,0.527324 1.137358,0.527324 h 0.26251 c 0.612377,0.614867 1.487485,1.405286 2.799909,1.493229 1.662448,0.08791 2.712387,-0.527007 3.412433,-0.702875 0.787435,-0.263513 1.925045,-0.263396 2.624905,-0.263396 2.099952,0.26353 2.974557,0.790901 2.974557,0.790901 0,0 0.08765,-0.96672 -0.787168,-2.284495 -0.700137,-0.966305 -2.100067,-1.317511 -2.100067,-1.317511 0,0 0.69995,-0.615131 1.575052,-0.7909 1.137459,-0.263329 2.100067,-0.175719 2.100067,-0.175719 0,0 -0.262718,-1.229898 -1.575052,-2.284128 -1.224941,-0.878661 -2.537401,-0.790735 -2.537401,-0.790735 0,0 0.349871,-0.702891 1.312364,-1.230014 0.875011,-0.439264 2.099886,-0.526776 2.099888,-0.526776 0,0 -0.787254,-0.966403 -2.362218,-1.581286 C 11.261148,2.335357 10.386017,2.159424 9.511053,2.148442 Z m -3.33339,4.10637 h 1.82e-4 c 0.573094,-0.0067 1.0035,0.483899 1.233141,1.175793 0.262542,0.790535 0.350341,2.284328 1.84e-4,3.162707 -0.437419,0.878478 -1.137452,1.14199 -1.924889,1.14199 -0.787712,0 -1.312538,-0.438999 -2.100068,-0.351454 0.175059,-0.175471 0.175078,-0.614834 0.0875,-1.141958 -0.04097,-0.16006 -0.06773,-0.186533 -0.134855,-0.338782 0.262632,0.175768 0.397363,-0.100346 0.397363,-0.100346 0,0 0.08751,-1.317807 0.525018,-2.196468 0.34993,-0.702693 0.874938,-1.229933 1.662374,-1.317693 0.08752,-0.02189 0.172176,-0.03285 0.254046,-0.03384 z M 2.135427,7.597699 c 0.288976,-0.0033 0.299238,0.568623 0.463441,1.062805 0,0.175487 0.174933,0.439164 0.262508,0.702859 h -0.08749 c -0.262355,0 -0.350156,0.527206 -0.175005,1.142155 0.08748,0.351438 0.262457,0.702811 0.437514,0.790735 -0.175057,0 -0.264725,-0.03981 -0.527359,-0.03981 -0.09493,-0.0051 -0.06466,-0.0066 -0.188687,0.0033 C 2.232869,11.083629 2.073843,10.857853 1.986361,10.594142 1.811396,10.242705 1.723924,9.891316 1.636349,8.83697 c 0,-0.527007 0.175066,-1.141791 0.437514,-1.229816 0.02187,-0.0067 0.04231,-0.0083 0.06157,-0.01 z m 4.13838,0.623508 c -0.437412,0.08791 -0.437493,0.614801 -0.350011,1.317709 0.08748,0.790618 0.35002,1.317924 0.787525,1.229998 0.437506,0 0.437495,-0.614981 0.350012,-1.317692 C 6.973853,8.748413 6.798796,8.221207 6.273807,8.221207 Z"
     sodipodi:nodetypes="cccccccsscccccccccccccccccsccscccccccccccscccccccccccccc" />
</svg>
