<?xml version="1.0" encoding="UTF-8" standalone="no"?>
<!-- Created with Inkscape (http://www.inkscape.org/) -->

<svg
   width="54"
   height="17"
   viewBox="0 0 14.2875 4.497917"
   version="1.1"
   id="svg5"
   inkscape:version="1.2 (dc2aedaf03, 2022-05-15)"
   sodipodi:docname="Logo_White.svg"
   xml:space="preserve"
   inkscape:export-filename="../Logo_White.svg"
   inkscape:export-xdpi="96"
   inkscape:export-ydpi="96"
   xmlns:inkscape="http://www.inkscape.org/namespaces/inkscape"
   xmlns:sodipodi="http://sodipodi.sourceforge.net/DTD/sodipodi-0.dtd"
   xmlns="http://www.w3.org/2000/svg"
   xmlns:svg="http://www.w3.org/2000/svg"><sodipodi:namedview
     id="namedview7"
     pagecolor="#808080"
     bordercolor="#666666"
     borderopacity="1.0"
     inkscape:pageshadow="2"
     inkscape:pageopacity="0"
     inkscape:pagecheckerboard="0"
     inkscape:document-units="px"
     showgrid="true"
     units="px"
     inkscape:snap-page="true"
     inkscape:snap-object-midpoints="false"
     inkscape:snap-center="false"
     inkscape:snap-text-baseline="false"
     inkscape:snap-midpoints="true"
     inkscape:snap-smooth-nodes="true"
     inkscape:snap-intersection-paths="true"
     inkscape:object-paths="true"
     inkscape:snap-bbox="true"
     inkscape:bbox-nodes="true"
     inkscape:bbox-paths="true"
     inkscape:snap-bbox-edge-midpoints="true"
     inkscape:snap-bbox-midpoints="true"
     inkscape:snap-nodes="true"
     inkscape:snap-others="true"
     inkscape:zoom="22.627417"
     inkscape:cx="22.98097"
     inkscape:cy="4.331029"
     inkscape:window-width="1920"
     inkscape:window-height="1007"
     inkscape:window-x="0"
     inkscape:window-y="235"
     inkscape:window-maximized="1"
     inkscape:current-layer="layer1"
     inkscape:object-nodes="true"
     inkscape:snap-grids="true"
     inkscape:showpageshadow="2"
     inkscape:deskcolor="#808080"><inkscape:grid
       type="xygrid"
       id="grid37399"
       spacingx="0.26458335"
       spacingy="0.26458335"
       originx="0"
       originy="0" /></sodipodi:namedview><defs
     id="defs2" /><g
     inkscape:label="Layer 1"
     inkscape:groupmode="layer"
     id="layer1"><path
       id="rect37839"
       style="fill:#ffffff;stroke:none;stroke-width:0.00278087;stroke-linecap:round;stroke-linejoin:round;stroke-miterlimit:4;stroke-dasharray:none;stroke-opacity:1"
       d="M 0.79375058,0 0.52916832,2.6458331 H 1.0583342 L 1.2061178,1.1679908 1.9204929,1.9617407 1.8520841,2.6458331 H 2.381252 L 2.6458343,0 H 2.1166664 L 1.9953405,1.213259 1.2809655,0.41950911 1.3229165,0 Z"
       inkscape:export-filename="/run/media/jorjoe05/My Drive/Dev Files/Godot/Projects/Node-16 Framework/misc/Branding/Logos/Logo_White.png"
       inkscape:export-xdpi="96"
       inkscape:export-ydpi="96" /><path
       id="rect37857"
       style="fill:#ffffff;stroke:none;stroke-width:0.00278087;stroke-linecap:round;stroke-linejoin:round;stroke-miterlimit:4;stroke-dasharray:none;stroke-opacity:1"
       d="M 5.2916662,0 5.0270838,2.6458331 h 0.5291679 0.264582 a 0.75505423,0.83442896 46.431213 0 0 0.8731247,-0.79375 L 6.7997931,0.79374986 A 0.75505423,0.83442896 46.431213 0 0 6.0854181,0 h -0.264584 z m 0.4762505,0.52916669 h 0.264584 A 0.2516847,0.27814297 46.431211 0 1 6.2706252,0.79374986 L 6.1647925,1.8520831 A 0.2516847,0.27814297 46.431211 0 1 5.8737511,2.1166665 h -0.264584 z"
       inkscape:export-filename="/run/media/jorjoe05/My Drive/Dev Files/Godot/Projects/Node-16 Framework/misc/Branding/Logos/Logo_White.png"
       inkscape:export-xdpi="96"
       inkscape:export-ydpi="96" /><path
       id="rect37865"
       style="fill:#ffffff;stroke:none;stroke-width:0.00278087;stroke-linecap:round;stroke-linejoin:round;stroke-miterlimit:4;stroke-dasharray:none;stroke-opacity:1"
       d="M 7.4083338,0 7.1437514,2.6458331 H 7.6729173 8.7312511 L 8.7841665,2.1166665 H 7.7258347 L 7.7787501,1.5874999 H 8.5725 L 8.6254169,1.0583332 H 7.831667 L 7.8845843,0.52916669 H 8.9429161 L 8.9958335,0 H 7.9374997 Z"
       inkscape:export-filename="/run/media/jorjoe05/My Drive/Dev Files/Godot/Projects/Node-16 Framework/misc/Branding/Logos/Logo_White.png"
       inkscape:export-xdpi="96"
       inkscape:export-ydpi="96" /><rect
       style="fill:#ffffff;stroke:none;stroke-width:0.00197126;stroke-linecap:round;stroke-linejoin:round;stroke-miterlimit:4;stroke-dasharray:none;stroke-opacity:1"
       id="rect37873"
       width="1.3229164"
       height="0.53180587"
       x="9.2604141"
       y="1.0636116"
       inkscape:export-filename="/run/media/jorjoe05/My Drive/Dev Files/Godot/Projects/Node-16 Framework/misc/Branding/Logos/Logo_White.png"
       inkscape:export-xdpi="96"
       inkscape:export-ydpi="96"
       transform="matrix(1,0,-0.09950411,0.99503715,0,0)" /><path
       id="rect37875"
       style="fill:#ffffff;fill-opacity:1;stroke:none;stroke-width:0.00278087;stroke-linecap:round;stroke-linejoin:round;stroke-miterlimit:4;stroke-dasharray:none;stroke-opacity:1"
       d="m 11.112498,0 -5.15e-4,0.004754 a 0.2516847,0.27814297 46.431211 0 1 -0.285811,0.25982915 h -0.0047 l -0.02646,0.26458334 h 0.264584 L 10.84794,2.6458329 h 0.529166 L 11.641618,0 Z"
       inkscape:export-filename="/run/media/jorjoe05/My Drive/Dev Files/Godot/Projects/Node-16 Framework/misc/Branding/Logos/Logo_White.png"
       inkscape:export-xdpi="96"
       inkscape:export-ydpi="96" /><path
       id="circle38690"
       style="fill:#ffffff;fill-opacity:1;stroke:none;stroke-width:0.015875;stroke-linecap:round;stroke-linejoin:round;stroke-miterlimit:4;stroke-dasharray:none;stroke-opacity:1"
       d="M 3.9687502,3.9999993e-7 A 0.75505423,0.83442896 46.431213 0 0 3.0956254,0.79375026 L 2.9897928,1.8520835 a 0.75505423,0.83442896 46.431213 0 0 0.7143752,0.79375 0.75505423,0.83442896 46.431213 0 0 0.8731247,-0.79375 L 4.6831253,0.79375026 A 0.75505423,0.83442896 46.431213 0 0 3.9687502,3.9999993e-7 Z M 3.915833,0.52916709 A 0.2516847,0.27814297 46.431211 0 1 4.1539593,0.79375026 L 4.0481247,1.8520835 A 0.2516847,0.27814297 46.431211 0 1 3.7570852,2.1166669 0.2516847,0.27814297 46.431211 0 1 3.5189588,1.8520835 L 3.6247914,0.79375026 A 0.2516847,0.27814297 46.431211 0 1 3.915833,0.52916709 Z"
       inkscape:export-filename="/run/media/jorjoe05/My Drive/Dev Files/Godot/Projects/Node-16 Framework/misc/Branding/Logos/Logo_White.png"
       inkscape:export-xdpi="96"
       inkscape:export-ydpi="96" /><path
       id="path41668"
       style="fill:#ffffff;fill-opacity:1;stroke:none;stroke-width:0.00529165;stroke-linecap:round;stroke-linejoin:round;stroke-miterlimit:4;stroke-dasharray:none;stroke-opacity:1"
       d="M 12.964582,0 A 0.75505408,0.83442884 46.431204 0 0 12.091458,0.79374981 L 11.985625,1.8520831 A 0.75505408,0.83442884 46.431204 0 0 12.7,2.6458331 0.75505408,0.83442884 46.431204 0 0 13.573125,1.8520831 0.75505408,0.83442884 46.431204 0 0 12.85875,1.0583332 0.75505408,0.83442884 46.431204 0 0 12.589567,1.1043252 l 0.03106,-0.31057539 h 10e-4 a 0.2516847,0.27814297 46.431211 0 1 0.220688,-0.2555915 0.2516847,0.27814297 46.431211 0 1 0.05948,-0.00878 0.2516847,0.27814297 46.431211 0 1 0.245928,0.1958538 l 0.52456,-0.1368392 A 0.75505408,0.83442884 46.431204 0 0 12.964652,1.0037255e-6 Z m -0.158749,1.5874999 a 0.2516847,0.27814297 46.431211 0 1 0.238124,0.2645832 0.2516847,0.27814297 46.431211 0 1 -0.291041,0.2645834 0.2516847,0.27814297 46.431211 0 1 -0.238125,-0.2645834 0.2516847,0.27814297 46.431211 0 1 0.291042,-0.2645832 z"
       inkscape:export-filename="/run/media/jorjoe05/My Drive/Dev Files/Godot/Projects/Node-16 Framework/misc/Branding/Logos/Logo_White.png"
       inkscape:export-xdpi="96"
       inkscape:export-ydpi="96" /><rect
       style="fill:#ffffff;stroke:none;stroke-width:0.00456941;stroke-linecap:round;stroke-linejoin:round;stroke-miterlimit:4;stroke-dasharray:none;stroke-opacity:1"
       id="rect49141"
       width="14.287502"
       height="0.26458341"
       x="-1.4941406e-06"
       y="2.9104156"
       inkscape:export-filename="/run/media/jorjoe05/My Drive/Dev Files/Godot/Projects/Node-16 Framework/misc/Branding/Logos/Logo_White.png"
       inkscape:export-xdpi="96"
       inkscape:export-ydpi="96" /><path
       id="path6872"
       style="fill:#ffffff;fill-opacity:1;stroke-width:0.00602799;stroke-linecap:round;stroke-linejoin:round"
       d="m 3.8364559,3.7041668 a 0.39687435,0.39687443 0 0 0 -0.396875,0.396875 0.39687435,0.39687443 0 0 0 0.396875,0.3968751 H 3.9687477 4.1010392 4.2333309 V 3.7041668 H 4.1010392 3.9687477 Z m 0,0.2645834 H 3.9687477 V 4.2333335 H 3.8364559 A 0.13229144,0.13229147 0 0 1 3.7041642,4.1010418 0.13229144,0.13229147 0 0 1 3.8364559,3.9687502 Z" /><path
       id="path6874"
       style="fill:#ffffff;fill-opacity:1;stroke-width:0.0187614;stroke-linecap:round;stroke-linejoin:round"
       d="M 1.719791,3.4395835 A 0.39687435,0.39687443 0 0 0 1.3229168,3.8364579 v 0.661459 H 1.5875013 V 4.2333324 H 1.8520808 V 3.9687478 H 1.5875013 V 3.8364579 A 0.13229144,0.13229147 0 0 1 1.719791,3.7041681 H 1.8520808 V 3.4395835 Z" /><path
       id="path6876"
       style="fill:#ffffff;fill-opacity:1;stroke-width:0.0187614;stroke-linecap:round;stroke-linejoin:round"
       d="M 10.186456,3.704168 A 0.39687435,0.39687443 0 0 0 9.7895813,4.1010425 0.39687435,0.39687443 0 0 0 10.186456,4.4979169 0.39687435,0.39687443 0 0 0 10.58333,4.1010425 0.39687435,0.39687443 0 0 0 10.186456,3.704168 Z m 0,0.2645797 a 0.13229144,0.13229147 0 0 1 0.132289,0.1322948 0.13229144,0.13229147 0 0 1 -0.132289,0.1322898 0.13229144,0.13229147 0 0 1 -0.132295,-0.1322898 0.13229144,0.13229147 0 0 1 0.132295,-0.1322948 z" /><path
       id="path6878"
       style="fill:#ffffff;fill-opacity:1;stroke-width:0.0187614;stroke-linecap:round;stroke-linejoin:round"
       d="M 2.7781219,3.7041681 A 0.39687435,0.39687443 0 0 0 2.3812475,4.1010426 V 4.4979169 H 2.6458321 V 4.1010426 A 0.13229144,0.13229147 0 0 1 2.7781219,3.9687478 H 2.9104116 V 3.7041681 Z" /><path
       id="path6880"
       style="fill:#ffffff;fill-opacity:1;stroke-width:0.0167393;stroke-linecap:round;stroke-linejoin:round"
       d="m 7.0114561,3.704168 a 0.39687438,0.39687446 0 0 0 -0.396875,0.3968745 0.39687435,0.39687443 0 0 0 0.396875,0.3968744 H 7.1437458 V 4.2333323 H 7.0114561 A 0.13229144,0.13229147 0 0 1 6.8791611,4.1010425 h 0.132295 0.3968737 A 0.39687438,0.39687446 0 0 0 7.0114561,3.704168 Z" /><path
       id="path6884"
       style="fill:#ffffff;fill-opacity:1;stroke-width:0.0187614;stroke-linecap:round;stroke-linejoin:round"
       d="m 12.170832,3.4395835 v 1.0583334 h 0.264584 V 4.2333335 h 0.132291 a 0.39687435,0.39687443 0 0 0 0.0041,0 0.13229144,0.13229147 0 0 1 0.128157,0.1322917 v 0.1322917 h 0.264585 V 4.3656252 A 0.39687435,0.39687443 0 0 0 12.863297,4.1010418 0.39687435,0.39687443 0 0 0 12.964584,3.8364585 V 3.7041668 H 12.699999 V 3.8364585 A 0.13229144,0.13229147 0 0 1 12.567707,3.9687502 H 12.435416 V 3.4395835 Z" /><path
       id="path6888"
       style="fill:#ffffff;fill-opacity:1;stroke-width:0.0187614;stroke-linecap:round;stroke-linejoin:round"
       d="m 11.509367,3.704168 a 0.39687435,0.39687443 0 0 0 -0.396869,0.3968745 v 0.3968744 h 0.264579 V 4.1010425 a 0.13229144,0.13229147 0 0 1 0.13229,-0.1322948 h 0.132295 V 3.704168 Z" /><path
       id="path9139"
       style="fill:#ffffff;fill-opacity:1;stroke-width:0.00602799;stroke-linecap:round;stroke-linejoin:round"
       d="M 4.7624976,3.7041668 V 4.4979169 H 5.0270809 V 3.9687502 H 5.1593726 A 0.13229147,0.13229144 0 0 1 5.2916643,4.1010418 V 4.4979169 H 5.5562476 V 4.1010418 3.9687502 H 5.6885393 A 0.13229147,0.13229144 0 0 1 5.820831,4.1010418 V 4.4979169 H 6.0854143 V 4.1010418 A 0.39687443,0.39687435 0 0 0 5.6885393,3.7041668 H 5.5562476 5.2916643 v 0.022738 A 0.39687443,0.39687435 0 0 0 5.1593726,3.7041668 H 5.0270809 Z" /><path
       id="path9162"
       style="fill:#ffffff;fill-opacity:1;stroke-width:0.00602799;stroke-linecap:round;stroke-linejoin:round"
       d="m 7.9374978,4.4979169 v -0.79375 H 8.2020812 V 4.2333335 H 8.3343728 A 0.13229147,0.13229144 0 0 0 8.4666645,4.1010419 v -0.396875 h 0.2645833 v 0.396875 0.1322916 H 8.8635395 A 0.13229147,0.13229144 0 0 0 8.9958312,4.1010419 v -0.396875 h 0.2645833 v 0.396875 a 0.39687443,0.39687435 0 0 1 -0.396875,0.396875 H 8.7312478 8.4666645 V 4.4751788 A 0.39687443,0.39687435 0 0 1 8.3343728,4.4979169 H 8.2020812 Z" /></g></svg>
