<?xml version="1.0" encoding="UTF-8" standalone="no"?>
<!-- Created with Inkscape (http://www.inkscape.org/) -->

<svg
   version="1.1"
   id="svg2"
   xml:space="preserve"
   width="256"
   height="256"
   viewBox="0 0 256 256"
   sodipodi:docname="Icon.svg"
   inkscape:export-filename="../Icons/Universal/H:\Dev Files\Godot\Assets\GDSonic\!Source!\Icons\Main Icon\GDSonic Icon.svg"
   inkscape:export-xdpi="96"
   inkscape:export-ydpi="96"
   inkscape:version="1.1 (c68e22c387, 2021-05-23)"
   xmlns:inkscape="http://www.inkscape.org/namespaces/inkscape"
   xmlns:sodipodi="http://sodipodi.sourceforge.net/DTD/sodipodi-0.dtd"
   xmlns="http://www.w3.org/2000/svg"
   xmlns:svg="http://www.w3.org/2000/svg"><defs
     id="defs6"><mask
       maskUnits="userSpaceOnUse"
       id="mask294"><g
         id="g302"
         transform="translate(-3.60375e-4)"
         style="stroke-width:1"><g
           id="g300"
           style="stroke-width:1.33333"
           transform="matrix(0.75000002,0,0,-0.75000002,0,256)"><rect
             style="fill:#ffffff;fill-opacity:1;stroke:none;stroke-width:14.2223"
             id="rect296"
             width="256.00095"
             height="255.99994"
             x="0"
             y="5.2e-06" /><path
             id="path298"
             style="fill:#000000;fill-opacity:1;stroke:none;stroke-width:14.2223"
             d="M -5e-7,5.2e-6 V 71.660163 c 0,-3.379333 0.22940399,-6.699826 0.69921864,-9.949226 C 5.0799607,30.091844 30.089682,5.0791384 61.708985,0.69921852 h 0.002 C 64.960937,0.22921853 68.28016,5.2e-6 71.660157,5.2e-6 Z m 184.3398405,0 c 39.57999,0 71.65943,32.0801188 71.65821,71.6601578 v 46.509757 66.16992 c 0,3.38 -0.22922,6.69923 -0.69922,9.94923 -4.38,31.61999 -29.38978,56.63172 -61.00977,61.01172 v -0.002 h -0.001 c -3.2494,0.4698 -6.56792,0.70116 -9.94728,0.70116 h 71.66017 V 5.2e-6 Z M -5e-7,184.33984 v 71.66017 H 71.660157 C 32.080173,256.00001 -5e-7,223.91984 -5e-7,184.33984 Z"
             mask="none" /></g></g></mask></defs><sodipodi:namedview
     id="namedview4"
     pagecolor="#ffffff"
     bordercolor="#999999"
     borderopacity="1"
     inkscape:pageshadow="0"
     inkscape:pageopacity="0"
     inkscape:pagecheckerboard="0"
     showgrid="false"
     inkscape:snap-others="true"
     inkscape:snap-bbox="true"
     inkscape:bbox-nodes="true"
     inkscape:snap-bbox-edge-midpoints="true"
     inkscape:bbox-paths="true"
     inkscape:snap-bbox-midpoints="true"
     inkscape:object-paths="true"
     inkscape:snap-intersection-paths="true"
     inkscape:snap-smooth-nodes="true"
     inkscape:snap-midpoints="true"
     inkscape:snap-object-midpoints="true"
     inkscape:snap-center="true"
     inkscape:snap-text-baseline="true"
     width="256px"
     inkscape:snap-page="true"
     inkscape:zoom="1.4142136"
     inkscape:cx="251.37646"
     inkscape:cy="65.407376"
     inkscape:window-width="1920"
     inkscape:window-height="1017"
     inkscape:window-x="-8"
     inkscape:window-y="214"
     inkscape:window-maximized="1"
     inkscape:current-layer="g8"
     inkscape:showpageshadow="2"
     inkscape:deskcolor="#d1d1d1" /><g
     id="g8"
     inkscape:groupmode="layer"
     inkscape:label="Main"
     transform="matrix(1.3333333,0,0,-1.3333333,0,341.33333)"
     style="display:inline;opacity:1;mix-blend-mode:normal"><g
       id="g1047"
       mask="url(#mask294)"><g
         id="g24361"><path
           style="fill:#10a7ab;fill-opacity:1;stroke:none;stroke-width:0.75px;stroke-linecap:butt;stroke-linejoin:miter;stroke-opacity:1"
           d="M 45.75755,255.99977 -3.7500001e-7,256 l 1e-6,-45.75733 L 146.24267,63.999987 l 45.75734,8e-6 V 109.7573 Z"
           id="path21413" /><path
           style="fill:#fcb150;fill-opacity:1;stroke:none;stroke-width:0.75px;stroke-linecap:butt;stroke-linejoin:miter;stroke-opacity:1"
           d="M 0,152.62746 88.627465,63.999995 H 0 Z"
           id="path7570" /><path
           style="fill:#fcb150;fill-opacity:1;stroke:none;stroke-width:0.75px;stroke-linecap:butt;stroke-linejoin:miter;stroke-opacity:1"
           d="M 103.37276,255.99978 192.00001,256 192,167.37254 Z"
           id="path4994" /><path
           style="fill:#e64c65;fill-opacity:1;stroke:none;stroke-width:0.75px;stroke-linecap:butt;stroke-linejoin:miter;stroke-opacity:1"
           d="m 146.24267,63.999995 -57.615213,-8e-6 L 3.7500001e-7,152.62744 v 57.61523 z"
           id="path11418" /><path
           style="fill:#e64c65;fill-opacity:1;stroke:none;stroke-width:0.75px;stroke-linecap:butt;stroke-linejoin:miter;stroke-opacity:1"
           d="m 45.75755,255.99977 57.61521,10e-6 88.62745,-88.62745 V 109.7571 Z"
           id="path21136" /></g><g
         id="g8508"
         style="display:inline;mix-blend-mode:normal"><path
           style="color:#000000;fill:#ffffff;stroke-width:0.75;-inkscape-stroke:none"
           d="m 108.59327,236.66113 -2.82422,-0.62695 c -5.03755,-1.11941 -10.121037,-2.69798 -14.97071,-5.13867 l -2.26611,-1.14112 0.06593,-2.53564 c 0.08184,-3.14277 0.377505,-6.21195 0.704587,-9.30322 -1.099725,-0.66181 -2.264662,-1.39352 -3.489255,-2.37452 -0.831577,-0.63794 -1.796212,-1.50405 -2.71875,-2.2456 -2.343765,1.45298 -4.68543,2.92099 -7.182127,4.17773 l -2.683597,1.35059 -2.044922,-2.2002 c -3.627994,-3.90438 -7.092174,-8.19207 -9.958007,-13.0708 l -1.223145,-2.08154 1.271484,-2.05225 c 1.488054,-2.40078 3.515229,-5.55335 5.835938,-8.41699 v -26.25586 h -0.04102 l 0.01758,-4.01807 c 0.0075,-1.67871 0.03077,-3.60967 0.03077,-3.80713 0,-9.81263 6.591342,-17.34526 15.773438,-21.73681 9.1821,-4.39155 21.208606,-6.35798 34.412116,-6.4043 h 0.007 0.0395 0.0395 0.007 c 13.20351,0.0463 25.23002,2.01275 34.41211,6.4043 9.18209,4.39155 15.77343,11.92419 15.77344,21.73681 0,0.19821 0.0232,2.12877 0.0307,3.80713 l 0.0175,4.01807 h -0.041 v 26.25586 c 2.32071,2.86363 4.34789,6.0162 5.83594,8.41699 l 1.27149,2.05225 -1.22314,2.08154 c -2.86584,4.87873 -6.33001,9.16641 -9.95802,13.0708 l -2.04492,2.2002 -2.68359,-1.35059 c -2.49669,-1.25674 -4.83837,-2.72475 -7.18213,-4.17773 -0.92254,0.74155 -1.88718,1.60766 -2.71875,2.2456 -1.22459,0.981 -2.38953,1.71271 -3.48926,2.37452 0.32709,3.09127 0.62276,6.16044 0.70459,9.30322 l 0.0659,2.53564 -2.26611,1.14112 c -4.84967,2.44069 -9.93315,4.01926 -14.97071,5.13867 l -2.82421,0.62695 -1.48096,-2.4873 c -1.53418,-2.57857 -2.82801,-5.30846 -4.11329,-8.0083 -1.02743,0.0787 -2.08621,0.23723 -3.0791,0.24902 l -0.0234,0.002 h -0.0586 -0.002 -0.001 -0.0586 l -0.0234,-0.002 c -0.99287,-0.0118 -2.05167,-0.17028 -3.0791,-0.24902 -1.28528,2.69985 -2.57911,5.42973 -4.11329,8.0083 z m -4.02686,-9.24316 c 1.26842,-2.32665 2.55622,-4.67344 3.63135,-7.0752 l 1.26123,-2.81982 3.04834,0.50976 c 1.53923,0.25719 3.14803,0.36164 4.83398,0.38233 0.002,3e-5 0.005,-3e-5 0.008,0 7.5e-4,-1e-5 0.002,1e-5 0.003,0 0.002,-3e-5 0.004,3e-5 0.007,0 1.68597,-0.0207 3.29475,-0.12514 4.83399,-0.38233 l 3.04833,-0.50976 1.26123,2.81982 c 1.07514,2.40177 2.36294,4.74855 3.63135,7.0752 2.67981,-0.71166 5.27151,-1.59844 7.76807,-2.67627 -0.13391,-2.84352 -0.26234,-5.65963 -0.63575,-8.44043 l -0.33984,-2.52246 2.14307,-1.37549 c 1.93111,-1.23959 3.61204,-2.13775 4.82959,-3.11572 l 0.0337,-0.0264 0.0337,-0.0264 c 1.70993,-1.31365 3.23357,-2.43219 4.43115,-3.62256 l 2.31006,-2.29541 2.71581,1.7959 c 2.0025,1.32447 4.1556,2.48393 6.28712,3.65918 2.01298,-2.32113 3.86536,-4.74867 5.52538,-7.30225 -1.45703,-2.28763 -3.0523,-4.69193 -4.63769,-6.47754 l -1.00927,-1.13672 V 169.372 l -0.007,-0.003 v -4.93213 -0.0146 l 0.0278,-4.03711 c -0.009,-1.46747 -0.0278,-2.98102 -0.0278,-3.46436 0,-6.43109 -3.7077,-10.92416 -11.2251,-14.51953 -7.5174,-3.59537 -18.59091,-5.57712 -30.98877,-5.6206 h -0.0175 -0.0175 -0.0146 c -12.39175,0.045 -23.459775,2.02669 -30.974123,5.6206 -7.517392,3.59537 -11.2251,8.08844 -11.2251,14.51953 0,0.48402 -0.01875,1.99724 -0.02783,3.46436 l 0.02783,4.03711 v 0.0146 4.93213 l -0.0075,0.003 v 24.48341 l -1.009385,1.13672 c -1.585545,1.78578 -3.182021,4.18971 -4.63916,6.47754 1.660062,2.55366 3.513817,4.98105 5.526856,7.30224 2.131524,-1.17524 4.284609,-2.3347 6.287109,-3.65918 l 2.715818,-1.7959 2.31006,2.29541 c 1.197585,1.19038 2.721225,2.30893 4.431157,3.62256 l 0.03368,0.0264 0.03368,0.0264 c 1.217528,0.97797 2.898473,1.87613 4.829588,3.11572 l 2.143065,1.37549 -0.33984,2.52246 c -0.373402,2.7808 -0.501832,5.59692 -0.635745,8.44043 2.496563,1.07784 5.08827,1.96462 7.76807,2.67627 z"
           id="path8659" /><path
           id="path7883"
           style="fill:#000000;fill-opacity:1;fill-rule:nonzero;stroke:none;stroke-width:0.999998"
           d="m 106.63623,232.12891 c -4.81506,-1.06997 -9.57513,-2.5596 -14.03906,-4.80616 0.10263,-3.94125 0.35798,-7.71743 0.87305,-11.55322 -1.73001,-1.1105 -3.55541,-2.06331 -5.17383,-3.36328 -1.64737,-1.26558 -3.324485,-2.47651 -4.813475,-3.95654 -2.975723,1.96818 -6.125505,3.81796 -9.369144,5.45068 -3.497479,-3.76393 -6.769003,-7.82743 -9.439453,-12.37354 1.71316,-2.76396 3.991684,-6.43684 6.436524,-9.19043 v -25.67138 l 0.0073,-0.003 v -2.22509 -0.001 l -0.0249,-3.68995 h -0.0059 c 0.0074,-1.65405 0.03077,-3.45756 0.03077,-3.8247 0,-16.24374 20.598328,-24.05083 46.199718,-24.14063 h 0.0323 0.0322 c 25.60138,0.0898 46.1997,7.89689 46.1997,24.14063 0,0.36714 0.0232,2.17065 0.0307,3.8247 h -0.006 l -0.0249,3.68995 v 0.001 2.22509 l 0.007,0.003 v 25.67138 c 2.44484,2.75359 4.72336,6.42647 6.43653,9.19043 -2.67045,4.54611 -5.94198,8.60961 -9.43946,12.37354 -3.24364,-1.63272 -6.39342,-3.4825 -9.36914,-5.45068 -1.48899,1.48003 -3.16611,2.69096 -4.81348,3.95654 -1.61842,1.29997 -3.44381,2.25278 -5.17383,3.36328 0.51506,3.83579 0.77041,7.61197 0.87304,11.55322 -4.46392,2.24656 -9.22399,3.73619 -14.03906,4.80616 -1.9223,-3.23093 -3.68079,-6.73096 -5.21191,-10.15137 -1.81549,0.30335 -3.63881,0.41631 -5.46534,0.43799 h -0.0352 c 0,0 -0.001,0 -0.001,0 h -0.002 -0.0352 c -1.82649,-0.0217 -3.64984,-0.13464 -5.46533,-0.43799 -1.53112,3.42041 -3.2896,6.92044 -5.21191,10.15137 z" /><path
           id="path3010"
           style="fill:#ffffff;fill-opacity:1;stroke:none;stroke-width:0.75px;stroke-linecap:butt;stroke-linejoin:miter;stroke-opacity:1"
           d="m 94.07813,186.70703 c -7.61861,0.0952 -15.19957,-1.24793 -23.33057,-3.83496 l -0.0249,-0.009 -0.0278,-0.0103 c -14.96572,-4.9888 -25.65518,-14.97421 -29.24414,-18.63574 -1.51559,0.4107 -3.29857,0.96767 -6.9668,1.53222 -2.47744,0.38128 -5.08522,0.65049 -7.59375,0.4834 -2.45563,-0.16356 -5.30399,-0.57655 -7.23926,-3.31495 -2.03327,-2.58697 -1.8509,-5.4049 -1.49267,-7.95117 0.36699,-2.60862 1.18314,-5.24596 2.08447,-7.7124 1.51217,-4.13801 2.84062,-6.6421 3.38672,-7.71679 -0.64582,-2.05131 -1.80798,-6.44141 -1.21729,-14.16212 0.48442,-6.73192 2.63486,-11.52046 4.56446,-14.90917 -0.0986,-0.0619 -0.20244,-0.0901 -0.3003,-0.15528 -1.6657,-1.10991 -3.56103,-3.15225 -3.56103,-5.99707 0,-1.86632 0.90556,-3.34088 1.85156,-4.331544 0.946,-0.99066 2.02091,-1.665068 3.19336,-2.220705 2.34489,-1.111268 5.14453,-1.72119 8.20752,-1.72119 h 0.56397 C 42.08102,91.035121 49.73381,84.702323 61.0181,83.949443 l 0.0264,-0.0029 0.0278,-0.0015 c 14.59193,-0.767865 24.4658,4.690275 28.94532,5.811038 l 0.14795,0.03662 0.14502,0.04834 c 5.23723,1.745542 14.1054,1.91727 19.81201,1.921875 8.14906,-1.034963 13.8851,-2.550675 17.49609,-3.782228 3.64832,-1.24428 4.92626,-2.047853 4.92626,-2.047853 l 5.46534,-3.28125 0.57714,6.348631 c 0,0 0.20351,2.71032 -0.60644,6.458497 -0.80982,3.74769 -2.61081,8.868057 -6.4541,14.633797 l -0.0439,0.0674 -0.0498,0.0674 c -3.22904,4.43861 -7.62141,7.27897 -11.42871,9.16699 1.46495,0.6883 3.03371,1.30598 4.70654,1.64063 l 0.0586,0.0117 0.0571,0.0147 c 8.58351,1.9791 15.82617,1.3374 15.82617,1.3374 l 5.41113,-0.49072 -1.13965,5.31299 c 0,0 -2.56802,11.46564 -14.22656,20.79345 l -0.085,0.0659 -0.0894,0.0645 c -5.31172,3.7947 -10.75411,5.51642 -15.07764,6.36181 1.23396,1.05483 2.70988,2.14355 4.63477,3.20069 5.9773,2.96559 15.52148,3.83642 15.52148,3.83642 l 7.69629,0.54785 -4.88671,5.97364 c 0,0 -7.15169,8.67767 -20.86524,14.00976 l -0.041,0.0147 -0.041,0.0161 c -8.15976,2.96742 -15.76738,4.50578 -23.38623,4.60108 z M 29.01416,113.01514 c 0.0459,-0.13791 0.10983,-0.22006 0.1582,-0.3545 0.0239,-0.0487 0.0344,-0.12142 0.0586,-0.16992 z" /><path
           id="path60"
           style="fill:#000000;fill-opacity:1;fill-rule:evenodd;stroke:none;stroke-width:0.999997"
           d="m 94.029009,182.70768 c -7.118615,0.089 -14.237478,-1.15707 -22.068226,-3.64857 -17.085745,-5.69549 -29.186271,-19.22057 -29.186271,-19.22057 0,0 -17.085087,4.98426 -19.933586,0.71301 -3.558749,-4.27275 4.984495,-20.6455 4.984495,-20.6455 0,0 -2.135176,-4.98408 -1.424927,-14.23608 0.714001,-9.96749 6.408324,-17.08813 6.408324,-17.08813 -2.847749,-0.7095 -5.694212,-2.13219 -5.694212,-4.26818 0,-2.13676 4.269685,-4.27258 9.252682,-4.27258 h 2.13684 c 4.982248,-4.982255 12.1013,-11.387839 22.779047,-12.100341 13.525493,-0.711748 22.068043,4.270313 27.763541,5.69531 6.406497,2.13525 15.661214,2.134643 21.355214,2.134643 17.085,-2.13525 24.20177,-6.408325 24.20177,-6.408325 0,0 0.71248,7.833114 -6.40502,18.510863 -5.69625,7.82999 -17.08593,10.67541 -17.08593,10.67541 0,0 5.6947,4.98517 12.81445,6.40942 9.25425,2.13375 17.08593,1.42382 17.08593,1.42382 0,0 -2.13745,9.96507 -12.81445,18.50757 -9.966,7.11975 -20.64441,6.40722 -20.64441,6.40722 0,0 2.84687,5.69555 10.67762,9.9668 7.119,3.55949 17.08483,4.26929 17.08483,4.26929 0,0 -6.40573,7.8311 -19.21948,12.81334 -7.83075,2.84775 -14.94961,4.27251 -22.068231,4.36158 z M 66.90927,149.43449 c 4.662634,0.0487 8.165467,-3.9221 10.033807,-9.52844 2.136007,-6.40575 2.849602,-18.5092 7.5e-4,-25.6267 -3.558748,-7.11825 -9.254509,-9.25378 -15.661005,-9.25378 -6.408748,0 -10.677586,3.55715 -17.084834,2.84766 1.424249,1.422 1.424414,4.98252 0.711914,9.25378 -0.333374,1.29642 -0.551413,1.5107 -1.097534,2.74438 2.136749,-1.42425 3.233275,0.81409 3.233275,0.81409 0,0 0.710886,10.677 4.270385,17.79674 2.846999,5.694 7.118768,9.96661 13.525264,10.67761 0.712028,0.17794 1.401535,0.26771 2.067625,0.27466 z M 34.021708,138.55144 c 2.351074,0.0238 2.43457,-4.60789 3.770507,-8.61218 0,-1.422 1.422143,-3.55747 2.134642,-5.69422 h -0.711914 c -2.134498,0 -2.847728,-4.27187 -1.422728,-9.25487 0.711749,-2.84776 2.135319,-5.69583 3.559568,-6.40833 -1.424249,0 -2.154508,0.3241 -4.291258,0.3241 -0.772358,0.0308 -0.525753,0.0441 -1.534789,-0.0209 -0.71175,1.42726 -2.005168,3.25754 -2.716918,5.39429 -1.423499,2.84775 -2.135156,5.69503 -2.847656,14.23828 0,4.2705 1.42432,9.25134 3.55957,9.96459 0.177937,0.0445 0.344238,0.0676 0.500976,0.0692 z m 33.668688,-5.05151 c -3.558745,-0.71251 -3.559403,-4.98212 -2.847655,-10.67761 0.711753,-6.4065 2.847728,-10.6793 6.407227,-9.9668 3.559499,0 3.559404,4.98361 2.847655,10.67761 -0.711753,5.69475 -2.135974,9.9668 -6.407227,9.9668 z" /></g></g></g></svg>
